<mxfile host="app.diagrams.net" modified="2022-12-06T15:07:09.662Z" agent="5.0 (Windows NT 10.0; Win64; x64) AppleWebKit/537.36 (KHTML, like Gecko) Chrome/107.0.0.0 Safari/537.36 Edg/107.0.1418.62" etag="MBxj4ex2gkl4g4Ge8aR-" version="20.4.0" type="github">
  <diagram id="JZr-c1jTTd16GhT4utE8" name="第 1 页">
    <mxGraphModel dx="1020" dy="869" grid="1" gridSize="10" guides="1" tooltips="1" connect="1" arrows="1" fold="1" page="1" pageScale="1" pageWidth="827" pageHeight="1169" math="0" shadow="0">
      <root>
        <mxCell id="0" />
        <mxCell id="1" parent="0" />
        <mxCell id="rZYhEb-8OkRiAON1pFSP-10" style="edgeStyle=orthogonalEdgeStyle;rounded=0;orthogonalLoop=1;jettySize=auto;html=1;exitX=0.5;exitY=0;exitDx=0;exitDy=0;entryX=0;entryY=0.5;entryDx=0;entryDy=0;curved=1;" edge="1" parent="1" source="YGVP1l7_omHwGUZvvbgh-3" target="YGVP1l7_omHwGUZvvbgh-4">
          <mxGeometry relative="1" as="geometry" />
        </mxCell>
        <mxCell id="rZYhEb-8OkRiAON1pFSP-37" value="个人信息" style="edgeLabel;html=1;align=center;verticalAlign=middle;resizable=0;points=[];" vertex="1" connectable="0" parent="rZYhEb-8OkRiAON1pFSP-10">
          <mxGeometry x="-0.1282" y="-15" relative="1" as="geometry">
            <mxPoint as="offset" />
          </mxGeometry>
        </mxCell>
        <mxCell id="rZYhEb-8OkRiAON1pFSP-12" style="edgeStyle=orthogonalEdgeStyle;curved=1;rounded=0;orthogonalLoop=1;jettySize=auto;html=1;exitX=0.5;exitY=1;exitDx=0;exitDy=0;entryX=0;entryY=0.5;entryDx=0;entryDy=0;" edge="1" parent="1" source="YGVP1l7_omHwGUZvvbgh-3" target="rZYhEb-8OkRiAON1pFSP-5">
          <mxGeometry relative="1" as="geometry" />
        </mxCell>
        <mxCell id="rZYhEb-8OkRiAON1pFSP-36" value="饭卡信息" style="edgeLabel;html=1;align=center;verticalAlign=middle;resizable=0;points=[];" vertex="1" connectable="0" parent="rZYhEb-8OkRiAON1pFSP-12">
          <mxGeometry x="-0.1886" y="14" relative="1" as="geometry">
            <mxPoint as="offset" />
          </mxGeometry>
        </mxCell>
        <mxCell id="rZYhEb-8OkRiAON1pFSP-14" style="edgeStyle=orthogonalEdgeStyle;curved=1;rounded=0;orthogonalLoop=1;jettySize=auto;html=1;exitX=0.25;exitY=1;exitDx=0;exitDy=0;entryX=0.5;entryY=1;entryDx=0;entryDy=0;" edge="1" parent="1" source="YGVP1l7_omHwGUZvvbgh-3" target="YGVP1l7_omHwGUZvvbgh-9">
          <mxGeometry relative="1" as="geometry" />
        </mxCell>
        <mxCell id="rZYhEb-8OkRiAON1pFSP-35" value="饭卡信息" style="edgeLabel;html=1;align=center;verticalAlign=middle;resizable=0;points=[];" vertex="1" connectable="0" parent="rZYhEb-8OkRiAON1pFSP-14">
          <mxGeometry x="-0.0628" y="35" relative="1" as="geometry">
            <mxPoint as="offset" />
          </mxGeometry>
        </mxCell>
        <mxCell id="rZYhEb-8OkRiAON1pFSP-23" style="edgeStyle=orthogonalEdgeStyle;curved=1;rounded=0;orthogonalLoop=1;jettySize=auto;html=1;exitX=0.25;exitY=0;exitDx=0;exitDy=0;entryX=0;entryY=0;entryDx=0;entryDy=0;" edge="1" parent="1" source="YGVP1l7_omHwGUZvvbgh-3" target="rZYhEb-8OkRiAON1pFSP-4">
          <mxGeometry relative="1" as="geometry">
            <Array as="points">
              <mxPoint x="103" y="90" />
              <mxPoint x="372" y="90" />
            </Array>
          </mxGeometry>
        </mxCell>
        <mxCell id="rZYhEb-8OkRiAON1pFSP-38" value="饭卡信息" style="edgeLabel;html=1;align=center;verticalAlign=middle;resizable=0;points=[];" vertex="1" connectable="0" parent="rZYhEb-8OkRiAON1pFSP-23">
          <mxGeometry x="-0.3295" y="-28" relative="1" as="geometry">
            <mxPoint x="1" as="offset" />
          </mxGeometry>
        </mxCell>
        <mxCell id="YGVP1l7_omHwGUZvvbgh-3" value="学生/教职工" style="rounded=0;whiteSpace=wrap;html=1;" parent="1" vertex="1">
          <mxGeometry x="80" y="320" width="90" height="50" as="geometry" />
        </mxCell>
        <mxCell id="rZYhEb-8OkRiAON1pFSP-11" style="edgeStyle=orthogonalEdgeStyle;curved=1;rounded=0;orthogonalLoop=1;jettySize=auto;html=1;exitX=1;exitY=0.5;exitDx=0;exitDy=0;entryX=0.25;entryY=0;entryDx=0;entryDy=0;" edge="1" parent="1" source="YGVP1l7_omHwGUZvvbgh-4" target="YGVP1l7_omHwGUZvvbgh-40">
          <mxGeometry relative="1" as="geometry" />
        </mxCell>
        <mxCell id="rZYhEb-8OkRiAON1pFSP-39" value="个人信息" style="edgeLabel;html=1;align=center;verticalAlign=middle;resizable=0;points=[];" vertex="1" connectable="0" parent="rZYhEb-8OkRiAON1pFSP-11">
          <mxGeometry x="0.1818" y="-22" relative="1" as="geometry">
            <mxPoint as="offset" />
          </mxGeometry>
        </mxCell>
        <mxCell id="YGVP1l7_omHwGUZvvbgh-4" value="办卡" style="ellipse;whiteSpace=wrap;html=1;aspect=fixed;" parent="1" vertex="1">
          <mxGeometry x="190" y="150" width="80" height="80" as="geometry" />
        </mxCell>
        <mxCell id="rZYhEb-8OkRiAON1pFSP-17" style="edgeStyle=orthogonalEdgeStyle;curved=1;rounded=0;orthogonalLoop=1;jettySize=auto;html=1;exitX=0.25;exitY=1;exitDx=0;exitDy=0;entryX=1;entryY=0;entryDx=0;entryDy=0;" edge="1" parent="1" source="YGVP1l7_omHwGUZvvbgh-6" target="YGVP1l7_omHwGUZvvbgh-9">
          <mxGeometry relative="1" as="geometry">
            <Array as="points">
              <mxPoint x="693" y="405" />
              <mxPoint x="480" y="405" />
              <mxPoint x="480" y="472" />
            </Array>
          </mxGeometry>
        </mxCell>
        <mxCell id="rZYhEb-8OkRiAON1pFSP-56" value="饭卡信息" style="edgeLabel;html=1;align=center;verticalAlign=middle;resizable=0;points=[];" vertex="1" connectable="0" parent="rZYhEb-8OkRiAON1pFSP-17">
          <mxGeometry x="-0.2099" y="3" relative="1" as="geometry">
            <mxPoint x="1" as="offset" />
          </mxGeometry>
        </mxCell>
        <mxCell id="rZYhEb-8OkRiAON1pFSP-52" style="edgeStyle=orthogonalEdgeStyle;curved=1;rounded=0;orthogonalLoop=1;jettySize=auto;html=1;exitX=0.25;exitY=0;exitDx=0;exitDy=0;entryX=1;entryY=0.5;entryDx=0;entryDy=0;" edge="1" parent="1" source="YGVP1l7_omHwGUZvvbgh-6" target="rZYhEb-8OkRiAON1pFSP-3">
          <mxGeometry relative="1" as="geometry" />
        </mxCell>
        <mxCell id="rZYhEb-8OkRiAON1pFSP-53" value="饭卡信息" style="edgeLabel;html=1;align=center;verticalAlign=middle;resizable=0;points=[];" vertex="1" connectable="0" parent="rZYhEb-8OkRiAON1pFSP-52">
          <mxGeometry x="0.1385" y="7" relative="1" as="geometry">
            <mxPoint x="1" as="offset" />
          </mxGeometry>
        </mxCell>
        <mxCell id="rZYhEb-8OkRiAON1pFSP-54" style="edgeStyle=orthogonalEdgeStyle;curved=1;rounded=0;orthogonalLoop=1;jettySize=auto;html=1;exitX=0.75;exitY=0;exitDx=0;exitDy=0;entryX=1;entryY=0.5;entryDx=0;entryDy=0;" edge="1" parent="1" source="YGVP1l7_omHwGUZvvbgh-6" target="rZYhEb-8OkRiAON1pFSP-4">
          <mxGeometry relative="1" as="geometry" />
        </mxCell>
        <mxCell id="rZYhEb-8OkRiAON1pFSP-55" value="挂失信息" style="edgeLabel;html=1;align=center;verticalAlign=middle;resizable=0;points=[];" vertex="1" connectable="0" parent="rZYhEb-8OkRiAON1pFSP-54">
          <mxGeometry x="0.1497" y="28" relative="1" as="geometry">
            <mxPoint as="offset" />
          </mxGeometry>
        </mxCell>
        <mxCell id="YGVP1l7_omHwGUZvvbgh-6" value="管理员" style="rounded=0;whiteSpace=wrap;html=1;" parent="1" vertex="1">
          <mxGeometry x="670" y="290" width="90" height="60" as="geometry" />
        </mxCell>
        <mxCell id="rZYhEb-8OkRiAON1pFSP-15" style="edgeStyle=orthogonalEdgeStyle;curved=1;rounded=0;orthogonalLoop=1;jettySize=auto;html=1;exitX=0.5;exitY=0;exitDx=0;exitDy=0;entryX=0.5;entryY=1;entryDx=0;entryDy=0;" edge="1" parent="1" source="YGVP1l7_omHwGUZvvbgh-9" target="YGVP1l7_omHwGUZvvbgh-40">
          <mxGeometry relative="1" as="geometry" />
        </mxCell>
        <mxCell id="rZYhEb-8OkRiAON1pFSP-45" value="饭卡信息" style="edgeLabel;html=1;align=center;verticalAlign=middle;resizable=0;points=[];" vertex="1" connectable="0" parent="rZYhEb-8OkRiAON1pFSP-15">
          <mxGeometry x="0.32" y="-3" relative="1" as="geometry">
            <mxPoint as="offset" />
          </mxGeometry>
        </mxCell>
        <mxCell id="YGVP1l7_omHwGUZvvbgh-9" value="查询" style="ellipse;whiteSpace=wrap;html=1;aspect=fixed;" parent="1" vertex="1">
          <mxGeometry x="370" y="460" width="80" height="80" as="geometry" />
        </mxCell>
        <mxCell id="rZYhEb-8OkRiAON1pFSP-22" style="edgeStyle=orthogonalEdgeStyle;curved=1;rounded=0;orthogonalLoop=1;jettySize=auto;html=1;exitX=0;exitY=0.75;exitDx=0;exitDy=0;entryX=0.5;entryY=1;entryDx=0;entryDy=0;" edge="1" parent="1" source="YGVP1l7_omHwGUZvvbgh-40" target="rZYhEb-8OkRiAON1pFSP-8">
          <mxGeometry relative="1" as="geometry">
            <mxPoint x="240" y="355" as="targetPoint" />
          </mxGeometry>
        </mxCell>
        <mxCell id="rZYhEb-8OkRiAON1pFSP-42" value="饭卡信息" style="edgeLabel;html=1;align=center;verticalAlign=middle;resizable=0;points=[];" vertex="1" connectable="0" parent="rZYhEb-8OkRiAON1pFSP-22">
          <mxGeometry x="-0.08" y="-1" relative="1" as="geometry">
            <mxPoint as="offset" />
          </mxGeometry>
        </mxCell>
        <mxCell id="rZYhEb-8OkRiAON1pFSP-31" style="edgeStyle=orthogonalEdgeStyle;curved=1;rounded=0;orthogonalLoop=1;jettySize=auto;html=1;exitX=1;exitY=0.5;exitDx=0;exitDy=0;entryX=0.338;entryY=1;entryDx=0;entryDy=0;entryPerimeter=0;" edge="1" parent="1" source="YGVP1l7_omHwGUZvvbgh-40" target="rZYhEb-8OkRiAON1pFSP-3">
          <mxGeometry relative="1" as="geometry" />
        </mxCell>
        <mxCell id="rZYhEb-8OkRiAON1pFSP-51" value="注销反馈" style="edgeLabel;html=1;align=center;verticalAlign=middle;resizable=0;points=[];" vertex="1" connectable="0" parent="rZYhEb-8OkRiAON1pFSP-31">
          <mxGeometry x="-0.1181" y="11" relative="1" as="geometry">
            <mxPoint as="offset" />
          </mxGeometry>
        </mxCell>
        <mxCell id="rZYhEb-8OkRiAON1pFSP-32" style="edgeStyle=orthogonalEdgeStyle;curved=1;rounded=0;orthogonalLoop=1;jettySize=auto;html=1;exitX=0.75;exitY=0;exitDx=0;exitDy=0;entryX=1;entryY=1;entryDx=0;entryDy=0;" edge="1" parent="1" source="YGVP1l7_omHwGUZvvbgh-40" target="rZYhEb-8OkRiAON1pFSP-4">
          <mxGeometry relative="1" as="geometry" />
        </mxCell>
        <mxCell id="rZYhEb-8OkRiAON1pFSP-49" value="挂失反馈" style="edgeLabel;html=1;align=center;verticalAlign=middle;resizable=0;points=[];" vertex="1" connectable="0" parent="rZYhEb-8OkRiAON1pFSP-32">
          <mxGeometry x="0.3681" y="4" relative="1" as="geometry">
            <mxPoint as="offset" />
          </mxGeometry>
        </mxCell>
        <mxCell id="rZYhEb-8OkRiAON1pFSP-33" style="edgeStyle=orthogonalEdgeStyle;curved=1;rounded=0;orthogonalLoop=1;jettySize=auto;html=1;exitX=0;exitY=0;exitDx=0;exitDy=0;entryX=1.013;entryY=0.738;entryDx=0;entryDy=0;entryPerimeter=0;" edge="1" parent="1" source="YGVP1l7_omHwGUZvvbgh-40" target="YGVP1l7_omHwGUZvvbgh-4">
          <mxGeometry relative="1" as="geometry" />
        </mxCell>
        <mxCell id="rZYhEb-8OkRiAON1pFSP-40" value="饭卡信息" style="edgeLabel;html=1;align=center;verticalAlign=middle;resizable=0;points=[];" vertex="1" connectable="0" parent="rZYhEb-8OkRiAON1pFSP-33">
          <mxGeometry x="-0.2704" y="17" relative="1" as="geometry">
            <mxPoint as="offset" />
          </mxGeometry>
        </mxCell>
        <mxCell id="rZYhEb-8OkRiAON1pFSP-34" style="edgeStyle=orthogonalEdgeStyle;curved=1;rounded=0;orthogonalLoop=1;jettySize=auto;html=1;exitX=0;exitY=1;exitDx=0;exitDy=0;entryX=0.938;entryY=0.175;entryDx=0;entryDy=0;entryPerimeter=0;" edge="1" parent="1" source="YGVP1l7_omHwGUZvvbgh-40" target="rZYhEb-8OkRiAON1pFSP-5">
          <mxGeometry relative="1" as="geometry" />
        </mxCell>
        <mxCell id="rZYhEb-8OkRiAON1pFSP-43" value="饭卡信息" style="edgeLabel;html=1;align=center;verticalAlign=middle;resizable=0;points=[];" vertex="1" connectable="0" parent="rZYhEb-8OkRiAON1pFSP-34">
          <mxGeometry x="-0.2201" relative="1" as="geometry">
            <mxPoint as="offset" />
          </mxGeometry>
        </mxCell>
        <mxCell id="rZYhEb-8OkRiAON1pFSP-46" style="edgeStyle=orthogonalEdgeStyle;curved=1;rounded=0;orthogonalLoop=1;jettySize=auto;html=1;exitX=0.75;exitY=1;exitDx=0;exitDy=0;entryX=0.763;entryY=0.075;entryDx=0;entryDy=0;entryPerimeter=0;" edge="1" parent="1" source="YGVP1l7_omHwGUZvvbgh-40" target="YGVP1l7_omHwGUZvvbgh-9">
          <mxGeometry relative="1" as="geometry">
            <Array as="points">
              <mxPoint x="460" y="370" />
              <mxPoint x="460" y="400" />
              <mxPoint x="440" y="400" />
              <mxPoint x="440" y="466" />
            </Array>
          </mxGeometry>
        </mxCell>
        <mxCell id="rZYhEb-8OkRiAON1pFSP-47" value="查询到的信息" style="edgeLabel;html=1;align=center;verticalAlign=middle;resizable=0;points=[];" vertex="1" connectable="0" parent="rZYhEb-8OkRiAON1pFSP-46">
          <mxGeometry x="-0.2256" y="-1" relative="1" as="geometry">
            <mxPoint x="1" y="1" as="offset" />
          </mxGeometry>
        </mxCell>
        <mxCell id="YGVP1l7_omHwGUZvvbgh-40" value="饭卡管理数据库" style="shape=partialRectangle;whiteSpace=wrap;html=1;left=0;right=0;fillColor=none;" parent="1" vertex="1">
          <mxGeometry x="340" y="310" width="120" height="60" as="geometry" />
        </mxCell>
        <mxCell id="rZYhEb-8OkRiAON1pFSP-30" style="edgeStyle=orthogonalEdgeStyle;curved=1;rounded=0;orthogonalLoop=1;jettySize=auto;html=1;exitX=0;exitY=0.5;exitDx=0;exitDy=0;entryX=1;entryY=0.25;entryDx=0;entryDy=0;" edge="1" parent="1" source="rZYhEb-8OkRiAON1pFSP-3" target="YGVP1l7_omHwGUZvvbgh-40">
          <mxGeometry relative="1" as="geometry" />
        </mxCell>
        <mxCell id="rZYhEb-8OkRiAON1pFSP-50" value="注销信息" style="edgeLabel;html=1;align=center;verticalAlign=middle;resizable=0;points=[];" vertex="1" connectable="0" parent="rZYhEb-8OkRiAON1pFSP-30">
          <mxGeometry x="-0.264" y="9" relative="1" as="geometry">
            <mxPoint as="offset" />
          </mxGeometry>
        </mxCell>
        <mxCell id="rZYhEb-8OkRiAON1pFSP-3" value="注销" style="ellipse;whiteSpace=wrap;html=1;aspect=fixed;" vertex="1" parent="1">
          <mxGeometry x="500" y="200" width="80" height="80" as="geometry" />
        </mxCell>
        <mxCell id="rZYhEb-8OkRiAON1pFSP-24" style="edgeStyle=orthogonalEdgeStyle;curved=1;rounded=0;orthogonalLoop=1;jettySize=auto;html=1;exitX=0.5;exitY=1;exitDx=0;exitDy=0;entryX=0.5;entryY=0;entryDx=0;entryDy=0;" edge="1" parent="1" source="rZYhEb-8OkRiAON1pFSP-4" target="YGVP1l7_omHwGUZvvbgh-40">
          <mxGeometry relative="1" as="geometry" />
        </mxCell>
        <mxCell id="rZYhEb-8OkRiAON1pFSP-48" value="挂失信息" style="edgeLabel;html=1;align=center;verticalAlign=middle;resizable=0;points=[];" vertex="1" connectable="0" parent="rZYhEb-8OkRiAON1pFSP-24">
          <mxGeometry x="-0.275" y="-2" relative="1" as="geometry">
            <mxPoint as="offset" />
          </mxGeometry>
        </mxCell>
        <mxCell id="rZYhEb-8OkRiAON1pFSP-4" value="挂失" style="ellipse;whiteSpace=wrap;html=1;aspect=fixed;" vertex="1" parent="1">
          <mxGeometry x="380" y="90" width="80" height="80" as="geometry" />
        </mxCell>
        <mxCell id="rZYhEb-8OkRiAON1pFSP-13" style="edgeStyle=orthogonalEdgeStyle;curved=1;rounded=0;orthogonalLoop=1;jettySize=auto;html=1;exitX=1;exitY=0.5;exitDx=0;exitDy=0;entryX=0.25;entryY=1;entryDx=0;entryDy=0;" edge="1" parent="1" source="rZYhEb-8OkRiAON1pFSP-5" target="YGVP1l7_omHwGUZvvbgh-40">
          <mxGeometry relative="1" as="geometry" />
        </mxCell>
        <mxCell id="rZYhEb-8OkRiAON1pFSP-44" value="充值金额" style="edgeLabel;html=1;align=center;verticalAlign=middle;resizable=0;points=[];" vertex="1" connectable="0" parent="rZYhEb-8OkRiAON1pFSP-13">
          <mxGeometry x="-0.3429" y="25" relative="1" as="geometry">
            <mxPoint as="offset" />
          </mxGeometry>
        </mxCell>
        <mxCell id="rZYhEb-8OkRiAON1pFSP-5" value="充值" style="ellipse;whiteSpace=wrap;html=1;aspect=fixed;" vertex="1" parent="1">
          <mxGeometry x="190" y="440" width="80" height="80" as="geometry" />
        </mxCell>
        <mxCell id="rZYhEb-8OkRiAON1pFSP-21" value="" style="edgeStyle=orthogonalEdgeStyle;curved=1;rounded=0;orthogonalLoop=1;jettySize=auto;html=1;" edge="1" parent="1" source="rZYhEb-8OkRiAON1pFSP-8" target="YGVP1l7_omHwGUZvvbgh-40">
          <mxGeometry relative="1" as="geometry" />
        </mxCell>
        <mxCell id="rZYhEb-8OkRiAON1pFSP-41" value="消费信息" style="edgeLabel;html=1;align=center;verticalAlign=middle;resizable=0;points=[];" vertex="1" connectable="0" parent="rZYhEb-8OkRiAON1pFSP-21">
          <mxGeometry x="-0.2" y="2" relative="1" as="geometry">
            <mxPoint as="offset" />
          </mxGeometry>
        </mxCell>
        <mxCell id="rZYhEb-8OkRiAON1pFSP-8" value="刷卡设备" style="rounded=0;whiteSpace=wrap;html=1;" vertex="1" parent="1">
          <mxGeometry x="180" y="260" width="90" height="60" as="geometry" />
        </mxCell>
      </root>
    </mxGraphModel>
  </diagram>
</mxfile>
